<?xml version="1.0" encoding="utf-8"?>
<!-- Generator: Adobe Illustrator 28.0.0, SVG Export Plug-In . SVG Version: 6.00 Build 0)  -->
<svg version="1.1" id="Layer_1" xmlns="http://www.w3.org/2000/svg" xmlns:xlink="http://www.w3.org/1999/xlink" x="0px" y="0px"
	 viewBox="0 0 28.8 32" style="enable-background:new 0 0 28.8 32;" xml:space="preserve">
<style type="text/css">
	.st0{fill:#9EABB2;}
</style>
<g>
	<path class="st0" d="M1.7,22.7c0,1.7,1.4,3.1,3.1,3.1L20.9,26v-1.7L4.8,24.1c-0.8,0-1.4-0.6-1.4-1.4V5.5H1.7V22.7L1.7,22.7z"/>
	<path class="st0" d="M1.7,5.5c0,1.8,1.5,3.3,3.3,3.3h18c1.3,0,2.4,1.1,2.4,2.4s-1.1,2.4-2.4,2.4h-2.1c-0.5,0-0.9,0.4-0.9,0.9V29
		c0,0.5,0.4,0.9,0.9,0.9H23c2.3,0,4.1-1.8,4.1-4.1h-1.7c0,1.3-1.1,2.4-2.4,2.4h-1.2v-13H23c2.3,0,4.1-1.8,4.1-4.1
		C27.1,8.9,25.3,7,23,7H9.6V3.1c0-0.5-0.4-0.9-0.9-0.9H5C3.2,2.3,1.7,3.7,1.7,5.5z M7.9,4v3H5C4.1,7,3.4,6.4,3.4,5.5
		C3.4,4.7,4.1,4,5,4H7.9z"/>
	<path class="st0" d="M25.4,25.8V11.3h1.7v14.5H25.4z M6.5,17v4.4c0,0.5,0.4,0.9,0.9,0.9s0.9-0.4,0.9-0.9V17c0-0.5-0.4-0.9-0.9-0.9
		S6.5,16.6,6.5,17z M9.9,11.9v9.6c0,0.5,0.4,0.9,0.9,0.9s0.9-0.4,0.9-0.9l0,0v-9.6c0-0.5-0.4-0.9-0.9-0.9C10.3,11,9.9,11.4,9.9,11.9
		z M13.3,11.9v9.6c0,0.5,0.4,0.9,0.9,0.9s0.9-0.4,0.9-0.9l0,0v-9.6c0-0.5-0.4-0.9-0.9-0.9S13.3,11.4,13.3,11.9z M16.7,11.9v9.6
		c0,0.5,0.4,0.9,0.9,0.9s0.9-0.4,0.9-0.9l0,0v-9.6c0-0.5-0.4-0.9-0.9-0.9S16.7,11.4,16.7,11.9z"/>
</g>
</svg>
